<svg xmlns="http://www.w3.org/2000/svg" style="position:absolute; width: 0; height: 0" > <symbol id="icon-accordion-close" width="24" height="24" viewBox="0 0 24 24" fill="none" > <path d="M1 12L23 12" stroke="currentColor" stroke-width="1.5"/> </symbol> <symbol id="icon-accordion-open" width="24" height="24" viewBox="0 0 24 24" fill="none" > <path d="M12 23L12 1" stroke="currentColor" stroke-width="1.5"/> <path d="M1 12H23" stroke="currentColor" stroke-width="1.5"/> </symbol> <symbol id="icon-ai-star" viewBox="0 0 24 24" fill="none"> <path d="M6 3.5L7.08036 6.41964L10 7.5L7.08036 8.58036L6 11.5L4.91964 8.58036L2 7.5L4.91964 6.41964L6 3.5Z" stroke="white" stroke-width="1.5" stroke-linejoin="round"/> <path d="M15.75 8L17.4381 12.5619L22 14.25L17.4381 15.9381L15.75 20.5L14.0619 15.9381L9.5 14.25L14.0619 12.5619L15.75 8Z" stroke="white" stroke-width="1.5" stroke-linejoin="round"/> </symbol><symbol id="icon-arrow-down" width="14" height="9" viewBox="0 0 14 9" fill="none" > <path d="M13 0.998047L7.00049 6.99756L1.00098 0.998045" stroke="currentColor" stroke-width="1.5"/> </symbol> <symbol id="icon-back-arrow-left" width="32" height="18" viewBox="0 0 32 18" fill="none" > <path d="M31 9L1 9" stroke="currentColor" stroke-width="1.5"/> <path d="M9 1L1 9L9 17" stroke="currentColor" stroke-width="1.5"/> </symbol> <symbol id="icon-back-arrow" width="31" height="18" viewBox="0 0 31 18" fill="none" > <g id="Group"> <path id="Vector" d="M31 9L1 9" stroke="currentColor" stroke-width="1.5"/> <path id="Rectangle" d="M9 1L1 9L9 17" stroke="currentColor" stroke-width="1.5"/> </g> </symbol> <symbol id="icon-burger-close" width="32" height="32" viewBox="0 0 32 32" fill="none" > <path d="M6 26L25.799 6.20101" stroke="currentColor" stroke-width="1.5"/> <path d="M6 6L25.799 25.799" stroke="currentColor" stroke-width="1.5"/> </symbol> <symbol id="icon-burger-open" width="32" height="32" viewBox="0 0 32 32" fill="none" > <path d="M2 12H30" stroke="currentColor" stroke-width="1.5"/> <path d="M2 20H30" stroke="currentColor" stroke-width="1.5"/> </symbol> <symbol id="icon-carousel-left" width="32" height="32" viewBox="0 0 32 32" fill="none" > <path d="M31 16L3 16" stroke="currentColor" stroke-width="1.5"/> <path d="M14 4L2 16L14 28" stroke="currentColor" stroke-width="1.5"/> </symbol> <symbol id="icon-carousel-right" width="32" height="32" viewBox="0 0 32 32" fill="none" > <path d="M1 16L29 16" stroke="currentColor" stroke-width="1.5"/> <path d="M18 4L30 16L18 28" stroke="currentColor" stroke-width="1.5"/> </symbol> <symbol id="icon-chevron-down" width="24" height="24" viewBox="0 0 24 24" fill="none" > <path d="M18 9.99805L12.0005 15.9976L6.00098 9.99804" stroke="currentColor" stroke-width="1.5"/> </symbol> <symbol id="icon-cta-left" width="33" height="32" viewBox="0 0 33 32" fill="none" > <path d="M32 16L2 16" stroke="currentColor" stroke-width="1.5"/> <path d="M10 8L2 16L10 24" stroke="currentColor" stroke-width="1.5"/> </symbol> <symbol id="icon-cta-right" width="33" height="32" viewBox="0 0 33 32" fill="none" > <path d="M1 16L31 16" stroke="currentColor" stroke-width="1.5"/> <path d="M23 8L31 16L23 24" stroke="currentColor" stroke-width="1.5"/> </symbol> <symbol id="icon-download" width="24" height="24" viewBox="0 0 24 24" fill="none" > <g id="cta icons/download"> <path id="Vector" d="M6 20L18 20" stroke="currentColor" stroke-width="1.5" stroke-linecap="square" stroke-linejoin="round"/> <path id="Vector_2" d="M12 4V16M12 16L17.25 10.75M12 16L6.75 10.75" stroke="currentColor" stroke-width="1.5" stroke-linecap="square"/> </g> </symbol> <symbol id="icon-filter" width="24" height="24" viewBox="0 0 24 24" fill="none" > <path d="M5 8L19 8" stroke="currentColor" stroke-width="1.5"/> <path d="M8 12L16 12" stroke="currentColor" stroke-width="1.5"/> <path d="M10 16L14 16" stroke="currentColor" stroke-width="1.5"/> </symbol> <symbol id="icon-icon_Australia" width="16" height="12" viewBox="0 0 16 12" fill="none" > <mask id="mask0_2788_25333" style="mask-type:luminance" maskUnits="userSpaceOnUse" x="-1" y="0" width="17" height="12"> <path d="M-0.000732422 0H15.9993V12H-0.000732422V0Z" fill="white"/> </mask> <g mask="url(#mask0_2788_25333)"> <path fill-rule="evenodd" clip-rule="evenodd" d="M-0.000732422 0V12H15.9993V0H-0.000732422Z" fill="#2E42A5"/> <mask id="mask1_2788_25333" style="mask-type:luminance" maskUnits="userSpaceOnUse" x="-1" y="0" width="17" height="12"> <path fill-rule="evenodd" clip-rule="evenodd" d="M-0.000732422 0V12H15.9993V0H-0.000732422Z" fill="white"/> </mask> <g mask="url(#mask1_2788_25333)"> <path d="M-0.000732422 0H8.99927V7H-0.000732422V0Z" fill="#2B409A"/> <mask id="mask2_2788_25333" style="mask-type:luminance" maskUnits="userSpaceOnUse" x="-1" y="0" width="10" height="7"> <path d="M-0.000732422 0H8.99927V7H-0.000732422V0Z" fill="white"/> </mask> <g mask="url(#mask2_2788_25333)"> <path d="M-1.00293 6.4999L0.977545 7.3685L9.04416 0.944356L10.0888 -0.346409L7.97095 -0.636719L4.68079 2.13163L2.03254 3.99684L-1.00293 6.4999Z" fill="#F7FCFF"/> <path d="M-0.731812 7.10842L0.277151 7.61247L9.71366 -0.46637H8.29696L-0.731812 7.10842Z" fill="#F50100"/> <path d="M10.0014 6.4999L8.02091 7.3685L-0.0456742 0.944356L-1.09033 -0.346409L1.0275 -0.636719L4.31768 2.13163L6.96591 3.99684L10.0014 6.4999Z" fill="#F7FCFF"/> <path d="M9.93373 6.93664L8.92478 7.44074L4.90663 3.98175L3.71533 3.59529L-1.19092 -0.34198H0.225779L5.12928 3.50183L6.43173 3.96524L9.93373 6.93664Z" fill="#F50100"/> <path fill-rule="evenodd" clip-rule="evenodd" d="M4.99152 0H3.99152V3H-0.000732422V4H3.99152V7H4.99152V4H8.99927V3H4.99152V0Z" fill="#F50100"/> <mask id="mask3_2788_25333" style="mask-type:luminance" maskUnits="userSpaceOnUse" x="-2" y="-1" width="12" height="9"> <path d="M-1.00073 -1H9.99927V8H-1.00073V-1Z" fill="white"/> <path fill-rule="evenodd" clip-rule="evenodd" d="M4.99152 0H3.99152V3H-0.000732422V4H3.99152V7H4.99152V4H8.99927V3H4.99152V0Z" fill="black"/> </mask> <g mask="url(#mask3_2788_25333)"> <path d="M3.99152 0V-0.75H3.24152V0H3.99152ZM4.99152 0H5.74152V-0.75H4.99152V0ZM3.99152 3V3.75H4.74152V3H3.99152ZM-0.000732541 3V2.25H-0.750732V3H-0.000732541ZM-0.000732541 4H-0.750732V4.75H-0.000732541V4ZM3.99152 4H4.74152V3.25H3.99152V4ZM3.99152 7H3.24152V7.75H3.99152V7ZM4.99152 7V7.75H5.74152V7H4.99152ZM4.99152 4V3.25H4.24152V4H4.99152ZM8.99927 4V4.75H9.74927V4H8.99927ZM8.99927 3H9.74927V2.25H8.99927V3ZM4.99152 3H4.24152V3.75H4.99152V3ZM3.99152 0.75H4.99152V-0.75H3.99152V0.75ZM4.74152 3V0H3.24152V3H4.74152ZM-0.000732541 3.75H3.99152V2.25H-0.000732541V3.75ZM0.749267 4V3H-0.750732V4H0.749267ZM3.99152 3.25H-0.000732541V4.75H3.99152V3.25ZM4.74152 7V4H3.24152V7H4.74152ZM4.99152 6.25H3.99152V7.75H4.99152V6.25ZM4.24152 4V7H5.74152V4H4.24152ZM8.99927 3.25H4.99152V4.75H8.99927V3.25ZM8.24927 3V4H9.74927V3H8.24927ZM4.99152 3.75H8.99927V2.25H4.99152V3.75ZM4.24152 0V3H5.74152V0H4.24152Z" fill="#F7FCFF"/> </g> </g> </g> <path d="M4.49926 10.25L3.84843 10.8514L3.91288 9.9676L3.03687 9.8338L3.76806 9.3331L3.32651 8.56475L4.17384 8.82425L4.49926 8L4.82467 8.82425L5.672 8.56475L5.23046 9.3331L5.96165 9.8338L5.0856 9.9676L5.1501 10.8514L4.49926 10.25Z" fill="#F7FCFF"/> <path d="M10.9992 6.5L10.5653 6.90095L10.6083 6.31175L10.0243 6.2225L10.5118 5.88875L10.2174 5.3765L10.7823 5.5495L10.9992 5L11.2162 5.5495L11.7811 5.3765L11.4867 5.88875L11.9742 6.2225L11.3901 6.31175L11.4331 6.90095L10.9992 6.5Z" fill="#F7FCFF"/> <path d="M11.9992 2.5L11.5653 2.90097L11.6083 2.31174L11.0243 2.22252L11.5118 1.88874L11.2174 1.37651L11.7823 1.54951L11.9992 1L12.2162 1.54951L12.7811 1.37651L12.4867 1.88874L12.9742 2.22252L12.3901 2.31174L12.4331 2.90097L11.9992 2.5Z" fill="#F7FCFF"/> <path d="M14.4992 4.5L14.0653 4.90097L14.1083 4.31175L13.5243 4.22252L14.0118 3.88874L13.7174 3.37651L14.2823 3.54951L14.4992 3L14.7162 3.54951L15.2811 3.37651L14.9867 3.88874L15.4742 4.22252L14.8901 4.31175L14.9331 4.90097L14.4992 4.5Z" fill="#F7FCFF"/> <path d="M12.4992 11L12.0653 11.401L12.1083 10.8118L11.5243 10.7225L12.0118 10.3888L11.7174 9.8765L12.2823 10.0495L12.4992 9.5L12.7162 10.0495L13.2811 9.8765L12.9867 10.3888L13.4742 10.7225L12.8901 10.8118L12.9331 11.401L12.4992 11Z" fill="#F7FCFF"/> <path d="M14.2492 7.125L13.8083 7.35675L13.8925 6.8659L13.5359 6.51825L14.0288 6.4466L14.2492 6L14.4696 6.4466L14.9625 6.51825L14.6058 6.8659L14.69 7.35675L14.2492 7.125Z" fill="#F7FCFF"/> </g> </symbol><symbol id="icon-icon_China" width="16" height="12" viewBox="0 0 16 12" fill="none" > <mask id="mask0_2788_25480" style="mask-type:luminance" maskUnits="userSpaceOnUse" x="-1" y="0" width="17" height="12"> <path d="M-0.000732422 0H15.9993V12H-0.000732422V0Z" fill="white"/> </mask> <g mask="url(#mask0_2788_25480)"> <path fill-rule="evenodd" clip-rule="evenodd" d="M-0.000732422 0H15.9993V12H-0.000732422V0Z" fill="#E31D1C"/> <path fill-rule="evenodd" clip-rule="evenodd" d="M7.50711 2.27413L7.00206 2.57905L7.11726 1.98403L6.69666 1.53872L7.26616 1.51464L7.50711 0.959045L7.7481 1.51464H8.31666L7.897 1.98403L8.02336 2.57905L7.50711 2.27413Z" fill="#FECA00"/> <path fill-rule="evenodd" clip-rule="evenodd" d="M3.50804 4.80358L2.06762 5.57905L2.39617 4.0658L1.19666 2.93328L2.82087 2.87205L3.50804 1.45905L4.19521 2.87205H5.81667L4.6199 4.0658L4.9802 5.57905L3.50804 4.80358Z" fill="#FECA00"/> <path fill-rule="evenodd" clip-rule="evenodd" d="M8.5071 4.27413L8.00206 4.57905L8.11726 3.98403L7.69666 3.53872L8.26616 3.51464L8.5071 2.95905L8.7481 3.51464H9.31666L8.897 3.98403L9.02336 4.57905L8.5071 4.27413Z" fill="#FECA00"/> <path fill-rule="evenodd" clip-rule="evenodd" d="M8.0071 6.27415L7.50206 6.57905L7.61726 5.98405L7.19666 5.5387L7.76616 5.51465L8.0071 4.95905L8.2481 5.51465H8.81666L8.397 5.98405L8.52336 6.57905L8.0071 6.27415Z" fill="#FECA00"/> <path fill-rule="evenodd" clip-rule="evenodd" d="M6.50711 7.77415L6.00206 8.07905L6.11726 7.48404L5.69666 7.0387L6.26616 7.01465L6.50711 6.45905L6.7481 7.01465H7.31666L6.897 7.48404L7.02335 8.07905L6.50711 7.77415Z" fill="#FECA00"/> </g> </symbol> <symbol id="icon-icon_France" width="16" height="12" viewBox="0 0 16 12" fill="none" > <mask id="mask0_2788_25443" style="mask-type:luminance" maskUnits="userSpaceOnUse" x="-1" y="0" width="17" height="12"> <path d="M-0.000732422 0H15.9993V12H-0.000732422V0Z" fill="white"/> </mask> <g mask="url(#mask0_2788_25443)"> <path fill-rule="evenodd" clip-rule="evenodd" d="M10.9993 0H15.9993V12H10.9993V0Z" fill="#F50100"/> <path fill-rule="evenodd" clip-rule="evenodd" d="M-0.000732422 0H5.99927V12H-0.000732422V0Z" fill="#2E42A5"/> <path fill-rule="evenodd" clip-rule="evenodd" d="M4.99927 0H10.9993V12H4.99927V0Z" fill="#F7FCFF"/> </g> </symbol> <symbol id="icon-icon_Germany" width="16" height="12" viewBox="0 0 16 12" fill="none" > <mask id="mask0_2788_25454" style="mask-type:luminance" maskUnits="userSpaceOnUse" x="-1" y="0" width="17" height="12"> <path d="M-0.000732422 0H15.9993V12H-0.000732422V0Z" fill="white"/> </mask> <g mask="url(#mask0_2788_25454)"> <path fill-rule="evenodd" clip-rule="evenodd" d="M-0.000732422 8H15.9993V12H-0.000732422V8Z" fill="#FFD018"/> <path fill-rule="evenodd" clip-rule="evenodd" d="M-0.000732422 4H15.9993V8H-0.000732422V4Z" fill="#E31D1C"/> <path fill-rule="evenodd" clip-rule="evenodd" d="M-0.000732422 0H15.9993V4H-0.000732422V0Z" fill="#272727"/> </g> </symbol> <symbol id="icon-icon_Global" width="24" height="24" viewBox="0 0 24 24" fill="none" > <path d="M12 21.0046C16.1926 21.0046 19.7156 18.1379 20.7157 14.2576M12 21.0046C7.80742 21.0046 4.28442 18.1379 3.2843 14.2576M12 21.0046C14.4853 21.0046 16.5 16.9752 16.5 12.0046C16.5 7.03408 14.4853 3.00464 12 3.00464M12 21.0046C9.51472 21.0046 7.5 16.9752 7.5 12.0046C7.5 7.03408 9.51472 3.00464 12 3.00464M12 3.00464C15.3652 3.00464 18.299 4.85158 19.8431 7.58709M12 3.00464C8.63481 3.00464 5.70099 4.85158 4.15692 7.58709M19.8431 7.58709C17.7397 9.40503 14.9983 10.5046 12 10.5046C9.00172 10.5046 6.26027 9.40503 4.15692 7.58709M19.8431 7.58709C20.5797 8.89207 21 10.3993 21 12.0046C21 12.7826 20.9013 13.5376 20.7157 14.2576M20.7157 14.2576C18.1334 15.6894 15.1619 16.5046 12 16.5046C8.8381 16.5046 5.86662 15.6894 3.2843 14.2576M3.2843 14.2576C3.09871 13.5376 3 12.7826 3 12.0046C3 10.3993 3.42032 8.89207 4.15692 7.58709" stroke="currentColor" stroke-width="1.5" stroke-linecap="round" stroke-linejoin="round"/> </symbol> <symbol id="icon-icon_Japan" width="16" height="12" viewBox="0 0 16 12" fill="none" > <mask id="mask0_2788_25495" style="mask-type:luminance" maskUnits="userSpaceOnUse" x="-1" y="0" width="17" height="12"> <path d="M-0.000732422 0H15.9993V12H-0.000732422V0Z" fill="white"/> </mask> <g mask="url(#mask0_2788_25495)"> <path fill-rule="evenodd" clip-rule="evenodd" d="M-0.000732422 0V12H15.9993V0H-0.000732422Z" fill="#F7FCFF"/> <mask id="mask1_2788_25495" style="mask-type:luminance" maskUnits="userSpaceOnUse" x="-1" y="0" width="17" height="12"> <path fill-rule="evenodd" clip-rule="evenodd" d="M-0.000732422 0V12H15.9993V0H-0.000732422Z" fill="white"/> </mask> <g mask="url(#mask1_2788_25495)"> <path fill-rule="evenodd" clip-rule="evenodd" d="M7.99927 9.75C10.0703 9.75 11.7493 8.07105 11.7493 6C11.7493 3.92893 10.0703 2.25 7.99927 2.25C5.92822 2.25 4.24927 3.92893 4.24927 6C4.24927 8.07105 5.92822 9.75 7.99927 9.75Z" fill="#E31D1C"/> </g> </g> </symbol> <symbol id="icon-icon_Netherlands" width="16" height="12" viewBox="0 0 16 12" fill="none" > <mask id="mask0_2788_25465" style="mask-type:luminance" maskUnits="userSpaceOnUse" x="-1" y="0" width="17" height="12"> <path d="M-0.000732422 0H15.9993V12H-0.000732422V0Z" fill="white"/> </mask> <g mask="url(#mask0_2788_25465)"> <path fill-rule="evenodd" clip-rule="evenodd" d="M-0.000732422 0V12H15.9993V0H-0.000732422Z" fill="#F7FCFF"/> <mask id="mask1_2788_25465" style="mask-type:luminance" maskUnits="userSpaceOnUse" x="-1" y="0" width="17" height="12"> <path fill-rule="evenodd" clip-rule="evenodd" d="M-0.000732422 0V12H15.9993V0H-0.000732422Z" fill="white"/> </mask> <g mask="url(#mask1_2788_25465)"> <path fill-rule="evenodd" clip-rule="evenodd" d="M-0.000732422 0V4H15.9993V0H-0.000732422Z" fill="#E31D1C"/> <path fill-rule="evenodd" clip-rule="evenodd" d="M-0.000732422 8V12H15.9993V8H-0.000732422Z" fill="#3D58DB"/> </g> </g> </symbol> <symbol id="icon-icon_Spain" width="16" height="12" viewBox="0 0 16 12" fill="none" > <mask id="mask0_2788_25368" style="mask-type:luminance" maskUnits="userSpaceOnUse" x="-1" y="0" width="17" height="12"> <path d="M-0.000732422 0H15.9993V12H-0.000732422V0Z" fill="white"/> </mask> <g mask="url(#mask0_2788_25368)"> <path fill-rule="evenodd" clip-rule="evenodd" d="M-0.000732422 0V12H15.9993V0H-0.000732422Z" fill="#FFB400"/> <mask id="mask1_2788_25368" style="mask-type:luminance" maskUnits="userSpaceOnUse" x="-1" y="0" width="17" height="12"> <path fill-rule="evenodd" clip-rule="evenodd" d="M-0.000732422 0V12H15.9993V0H-0.000732422Z" fill="white"/> </mask> <g mask="url(#mask1_2788_25368)"> <path fill-rule="evenodd" clip-rule="evenodd" d="M-0.000732422 0V3H15.9993V0H-0.000732422Z" fill="#C51918"/> <path fill-rule="evenodd" clip-rule="evenodd" d="M-0.000732422 9V12H15.9993V9H-0.000732422Z" fill="#C51918"/> <path d="M2.5033 5.13599H3.0633V8.04799H2.5033V5.13599Z" fill="#F1F9FF"/> <path fill-rule="evenodd" clip-rule="evenodd" d="M3.2873 4.63196H2.2793V4.91196H2.4473V5.13595H3.1193V4.91196H3.2873V4.63196Z" fill="#C88A02"/> <path fill-rule="evenodd" clip-rule="evenodd" d="M3.1193 8.21594H3.2873V8.49594H2.2793V8.21594H2.4473V7.99194H3.1193V8.21594Z" fill="#C88A02"/> <path fill-rule="evenodd" clip-rule="evenodd" d="M2.78324 4.68796C2.9051 4.68796 2.91749 4.64207 2.98939 4.57354C3.04521 4.52032 3.17524 4.45431 3.17524 4.37996C3.17524 4.20986 2.99973 4.07196 2.78324 4.07196C2.56674 4.07196 2.39124 4.20986 2.39124 4.37996C2.39124 4.4628 2.48078 4.51818 2.54848 4.57354C2.61981 4.63186 2.67217 4.68796 2.78324 4.68796Z" fill="#AD1619"/> <path fill-rule="evenodd" clip-rule="evenodd" d="M2.2793 8.49597H3.2873V8.94397C3.2873 8.94397 3.1613 8.88797 3.0353 8.88797C2.9093 8.88797 2.7833 8.94397 2.7833 8.94397C2.7833 8.94397 2.6573 8.88797 2.5313 8.88797C2.4053 8.88797 2.2793 8.94397 2.2793 8.94397V8.49597Z" fill="#005BBF"/> <mask id="mask2_2788_25368" style="mask-type:luminance" maskUnits="userSpaceOnUse" x="2" y="8" width="2" height="1"> <path fill-rule="evenodd" clip-rule="evenodd" d="M2.2793 8.49597H3.2873V8.94397C3.2873 8.94397 3.1613 8.88797 3.0353 8.88797C2.9093 8.88797 2.7833 8.94397 2.7833 8.94397C2.7833 8.94397 2.6573 8.88797 2.5313 8.88797C2.4053 8.88797 2.2793 8.94397 2.2793 8.94397V8.49597Z" fill="white"/> </mask> <g mask="url(#mask2_2788_25368)"> <path d="M2.27017 8.85594L2.24817 8.80229C2.33896 8.76189 2.43007 8.74164 2.52132 8.74164C2.58028 8.74164 2.61106 8.74984 2.6634 8.77314C2.70937 8.79359 2.7332 8.79994 2.78347 8.79994C2.83375 8.79994 2.85758 8.79359 2.90355 8.77314C2.95588 8.74984 2.98667 8.74164 3.04562 8.74164C3.13687 8.74164 3.22799 8.76189 3.31878 8.80229L3.29677 8.85594C3.2128 8.81859 3.12914 8.79994 3.04562 8.79994C2.99535 8.79994 2.97152 8.80634 2.92555 8.82679C2.87321 8.85009 2.84243 8.85829 2.78347 8.85829C2.72452 8.85829 2.69373 8.85009 2.6414 8.82679C2.59543 8.80634 2.5716 8.79994 2.52132 8.79994C2.4378 8.79994 2.35415 8.81859 2.27017 8.85594Z" fill="white"/> <path d="M2.27017 8.68796L2.24817 8.63431C2.33896 8.59391 2.43007 8.57361 2.52132 8.57361C2.58028 8.57361 2.61106 8.58186 2.6634 8.60511C2.70937 8.62561 2.7332 8.63196 2.78347 8.63196C2.83375 8.63196 2.85758 8.62561 2.90355 8.60511C2.95588 8.58186 2.98667 8.57361 3.04562 8.57361C3.13687 8.57361 3.22799 8.59391 3.31878 8.63431L3.29677 8.68796C3.2128 8.65056 3.12914 8.63196 3.04562 8.63196C2.99535 8.63196 2.97152 8.63831 2.92555 8.65876C2.87321 8.68206 2.84243 8.69031 2.78347 8.69031C2.72452 8.69031 2.69373 8.68206 2.6414 8.65876C2.59543 8.63831 2.5716 8.63196 2.52132 8.63196C2.4378 8.63196 2.35415 8.65056 2.27017 8.68796Z" fill="white"/> </g> <path d="M7.99133 5.13599H8.55133V8.04799H7.99133V5.13599Z" fill="#F1F9FF"/> <path fill-rule="evenodd" clip-rule="evenodd" d="M8.77533 4.63196H7.76733V4.91196H7.93533V5.13595H8.60733V4.91196H8.77533V4.63196Z" fill="#C88A02"/> <path fill-rule="evenodd" clip-rule="evenodd" d="M8.60733 8.21594H8.77533V8.49594H7.76733V8.21594H7.93533V7.99194H8.60733V8.21594Z" fill="#C88A02"/> <path fill-rule="evenodd" clip-rule="evenodd" d="M8.27127 4.68796C8.39312 4.68796 8.40552 4.64207 8.47742 4.57354C8.53327 4.52032 8.66327 4.45431 8.66327 4.37996C8.66327 4.20986 8.48777 4.07196 8.27127 4.07196C8.05477 4.07196 7.87927 4.20986 7.87927 4.37996C7.87927 4.4628 7.96882 4.51818 8.03652 4.57354C8.10782 4.63186 8.16022 4.68796 8.27127 4.68796Z" fill="#AD1619"/> <path fill-rule="evenodd" clip-rule="evenodd" d="M7.76733 8.49597H8.77533V8.94397C8.77533 8.94397 8.64933 8.88797 8.52333 8.88797C8.39733 8.88797 8.27133 8.94397 8.27133 8.94397C8.27133 8.94397 8.14533 8.88797 8.01933 8.88797C7.89333 8.88797 7.76733 8.94397 7.76733 8.94397V8.49597Z" fill="#005BBF"/> <mask id="mask3_2788_25368" style="mask-type:luminance" maskUnits="userSpaceOnUse" x="7" y="8" width="2" height="1"> <path fill-rule="evenodd" clip-rule="evenodd" d="M7.76733 8.49597H8.77533V8.94397C8.77533 8.94397 8.64933 8.88797 8.52333 8.88797C8.39733 8.88797 8.27133 8.94397 8.27133 8.94397C8.27133 8.94397 8.14533 8.88797 8.01933 8.88797C7.89333 8.88797 7.76733 8.94397 7.76733 8.94397V8.49597Z" fill="white"/> </mask> <g mask="url(#mask3_2788_25368)"> <path d="M7.75821 8.85594L7.73621 8.80229C7.82696 8.76189 7.91811 8.74164 8.00936 8.74164C8.06831 8.74164 8.09906 8.74984 8.15141 8.77314C8.19741 8.79359 8.22121 8.79994 8.27151 8.79994C8.32176 8.79994 8.34561 8.79359 8.39156 8.77314C8.44391 8.74984 8.47471 8.74164 8.53366 8.74164C8.62491 8.74164 8.71601 8.76189 8.80681 8.80229L8.78481 8.85594C8.70081 8.81859 8.61716 8.79994 8.53366 8.79994C8.48336 8.79994 8.45956 8.80634 8.41356 8.82679C8.36121 8.85009 8.33046 8.85829 8.27151 8.85829C8.21256 8.85829 8.18176 8.85009 8.12941 8.82679C8.08346 8.80634 8.05961 8.79994 8.00936 8.79994C7.92581 8.79994 7.84216 8.81859 7.75821 8.85594Z" fill="white"/> <path d="M7.75821 8.68796L7.73621 8.63431C7.82696 8.59391 7.91811 8.57361 8.00936 8.57361C8.06831 8.57361 8.09906 8.58186 8.15141 8.60511C8.19741 8.62561 8.22121 8.63196 8.27151 8.63196C8.32176 8.63196 8.34561 8.62561 8.39156 8.60511C8.44391 8.58186 8.47471 8.57361 8.53366 8.57361C8.62491 8.57361 8.71601 8.59391 8.80681 8.63431L8.78481 8.68796C8.70081 8.65056 8.61716 8.63196 8.53366 8.63196C8.48336 8.63196 8.45956 8.63831 8.41356 8.65876C8.36121 8.68206 8.33046 8.69031 8.27151 8.69031C8.21256 8.69031 8.18176 8.68206 8.12941 8.65876C8.08346 8.63831 8.05961 8.63196 8.00936 8.63196C7.92581 8.63196 7.84216 8.65056 7.75821 8.68796Z" fill="white"/> </g> <path fill-rule="evenodd" clip-rule="evenodd" d="M2.49327 7.83994C2.59423 7.71754 2.65069 7.60619 2.65069 7.48789C2.65069 7.41334 2.6285 7.34894 2.58962 7.29629L2.59619 7.29334C2.59558 7.29364 2.70695 7.24509 2.74572 7.22649C2.8178 7.19194 2.88129 7.15534 2.94321 7.11029C2.98273 7.08154 3.03569 7.05024 3.11642 7.00689C3.13037 6.99939 3.16818 6.97934 3.1923 6.96654L3.21277 6.95569C3.25201 6.93474 3.28122 6.91869 3.30837 6.90294C3.39295 6.85389 3.44885 6.81334 3.4916 6.75909C3.59286 6.63069 3.57184 6.45664 3.42994 6.36004C3.36042 6.31269 3.26661 6.28554 3.12909 6.26419L3.10066 6.25979C3.05368 6.25249 2.96342 6.23854 2.93242 6.23369C2.86661 6.22334 2.80789 6.21369 2.75554 6.20454C3.09982 6.14729 3.59144 6.16834 3.80769 6.27999L4.01322 5.88189C3.57255 5.65439 2.56848 5.67764 2.19341 5.93589C1.91832 6.12539 1.95523 6.41174 2.24146 6.53509C2.36106 6.58659 2.51697 6.62079 2.8055 6.66714C2.75715 6.69519 2.71706 6.72084 2.67971 6.74799C2.64183 6.77554 2.60125 6.79894 2.55203 6.82254C2.52849 6.83379 2.45879 6.86439 2.42683 6.87844L2.41075 6.88554C2.17761 6.99154 2.06446 7.13819 2.09827 7.40294L2.11657 7.54624L2.1494 7.55629L2.49327 7.83994ZM2.20508 7.46959L2.20437 7.47164L2.20491 7.47019L2.20508 7.46959ZM8.35227 7.48789C8.35227 7.60619 8.40872 7.71754 8.50967 7.83994L8.85357 7.55629L8.88637 7.54624L8.90467 7.40294C8.93852 7.13819 8.82537 6.99154 8.59222 6.88554L8.57617 6.87844C8.54422 6.86444 8.47447 6.83379 8.45092 6.82254C8.40172 6.79894 8.36112 6.77554 8.32327 6.74799C8.28592 6.72084 8.24582 6.69519 8.19747 6.66714C8.48597 6.62079 8.64192 6.58659 8.76152 6.53509C9.04772 6.41174 9.08462 6.12539 8.80952 5.93589C8.43447 5.67764 7.43042 5.65439 6.98972 5.88189L7.19527 6.27999C7.41152 6.16834 7.90312 6.14729 8.24742 6.20454C8.19507 6.21369 8.13637 6.22334 8.07052 6.23369C8.03957 6.23854 7.94932 6.25249 7.90232 6.25974L7.87387 6.26419C7.73637 6.28554 7.64252 6.31269 7.57302 6.36004C7.43112 6.45664 7.41012 6.63069 7.51137 6.75909C7.55412 6.81334 7.61002 6.85389 7.69457 6.90294C7.72172 6.91869 7.75097 6.93474 7.79017 6.95569L7.81057 6.96649C7.83467 6.97929 7.87257 6.99939 7.88652 7.00689C7.96727 7.05024 8.02022 7.08154 8.05977 7.11029C8.12167 7.15534 8.18517 7.19194 8.25722 7.22649C8.29602 7.24509 8.40737 7.29364 8.40677 7.29334L8.41332 7.29629C8.37447 7.34894 8.35227 7.41334 8.35227 7.48789Z" fill="#AD1619"/> <path d="M2.96097 6.19995L3.12627 6.23415V6.4805C2.95022 6.621 2.5033 6.85775 2.5033 6.85775V6.19995H2.96097Z" fill="#F1F9FF"/> <path d="M8.15663 6.19995L7.99133 6.23415V6.4805C8.16738 6.621 8.61433 6.85775 8.61433 6.85775V6.19995H8.15663Z" fill="#F1F9FF"/> <path fill-rule="evenodd" clip-rule="evenodd" d="M7.38732 3.60295V3.52096C7.09932 3.31424 6.79767 3.21088 6.48242 3.21088C6.18022 3.07714 5.87432 3.02523 5.56472 3.05514L5.56487 3.0537C5.09937 3.00815 4.63026 3.21088 4.63026 3.21088C4.1574 3.21088 3.72534 3.52096 3.72534 3.52096V3.60295L4.29016 4.17022C4.29016 4.17022 4.44914 4.71622 5.56257 4.58789V4.58928C5.56257 4.58928 6.29972 4.56916 6.35152 4.55193C6.37207 4.54509 6.39342 4.53887 6.41517 4.53251C6.55957 4.49036 6.72442 4.44223 6.82252 4.17022L7.38732 3.60295ZM5.56257 3.08022C5.54647 3.26908 5.45472 4.40755 5.56257 4.58405V3.08022Z" fill="#AD1619"/> <path fill-rule="evenodd" clip-rule="evenodd" d="M4.15614 4.07476L4.15651 4.07303L3.75916 3.69919L3.79753 3.6584L4.17039 4.0092L4.17993 3.96531C4.24093 3.97858 4.28552 3.98345 4.31151 3.98069V3.90459L4.39415 3.94932C4.43481 3.97132 4.49303 3.97724 4.56971 3.96476C4.62603 3.9556 4.66404 3.89019 4.67646 3.7508L4.70155 3.46942L4.7857 3.7391C4.82378 3.86113 4.88187 3.91492 4.96457 3.91492C5.04536 3.91492 5.07782 3.88531 5.08142 3.81067L5.09157 3.59898L5.18731 3.78806C5.22176 3.85618 5.26936 3.88708 5.33696 3.88708C5.43371 3.88708 5.49832 3.80644 5.49832 3.67992H5.50012H5.61032H5.61212C5.61212 3.80644 5.67677 3.88708 5.77346 3.88708C5.84111 3.88708 5.88867 3.85618 5.92317 3.78806L6.01886 3.59898L6.02906 3.81067C6.03261 3.88531 6.06511 3.91492 6.14586 3.91492C6.22856 3.91492 6.28666 3.86113 6.32471 3.7391L6.40886 3.46942L6.43396 3.7508C6.44641 3.89019 6.48442 3.9556 6.54071 3.96476C6.61741 3.97724 6.67562 3.97132 6.71626 3.94932L6.79892 3.90459V3.98069C6.82492 3.98345 6.86952 3.97858 6.93052 3.96531L6.94821 4.04675L7.36097 3.6584L7.39937 3.69919L6.88571 4.18244C6.81076 4.32046 6.77301 4.41155 6.77301 4.44939C6.77301 4.50712 6.62282 4.54139 6.32972 4.57658C6.10006 4.60416 5.82907 4.62266 5.60737 4.62543L5.57926 4.6257L5.55116 4.62579C5.32947 4.62302 5.05846 4.60416 4.8288 4.57658C4.53567 4.54139 4.38549 4.50712 4.38549 4.44939C4.38549 4.44223 4.38413 4.43317 4.38144 4.42224C4.35188 4.3846 4.33109 4.32302 4.31726 4.26747C4.30429 4.2415 4.28947 4.21313 4.27281 4.18244L4.15901 4.07538L4.15614 4.07476ZM6.90886 4.08377C6.81716 4.10001 6.75091 4.09837 6.71576 4.06976C6.66081 4.08575 6.59636 4.08729 6.52271 4.07531C6.44411 4.06252 6.38937 4.01022 6.35642 3.92347C6.31342 3.97826 6.25902 4.01209 6.19392 4.02303C6.55227 4.07385 6.80326 4.14529 6.80326 4.14529C6.80326 4.14529 6.79712 4.19836 6.78207 4.26076C6.79797 4.22809 6.81686 4.19179 6.83866 4.15173L6.84406 4.14473L6.90886 4.08377ZM6.02481 4.00174C5.99361 3.98625 5.96871 3.9638 5.95076 3.93486C5.92402 3.95845 5.89367 3.97571 5.85992 3.98636C5.91622 3.99067 5.97131 3.99587 6.02481 4.00174ZM5.66222 3.97546C5.61857 3.9553 5.58232 3.92302 5.55522 3.88166C5.52832 3.92273 5.49237 3.95485 5.44917 3.97503C5.47477 3.97427 5.50052 3.97373 5.52637 3.97344L5.54882 3.97325L5.57127 3.97319C5.60177 3.97353 5.63212 3.97447 5.66222 3.97546ZM4.31037 4.1409L4.25816 4.09178C4.32084 4.09799 4.36722 4.0921 4.39466 4.06976C4.44962 4.08575 4.5141 4.08729 4.5877 4.07531C4.66632 4.06252 4.72107 4.01022 4.75401 3.92347C4.79577 3.97668 4.84826 4.01011 4.91091 4.02202C4.60194 4.06543 4.37141 4.12449 4.31037 4.1409ZM5.24811 3.98558C5.19386 3.98961 5.14077 3.99448 5.08912 3.99999C5.11867 3.98458 5.14237 3.96273 5.15972 3.93486C5.18577 3.95789 5.21531 3.97488 5.24811 3.98558ZM6.62582 4.45049C6.66502 4.46885 6.69646 4.45054 6.72136 4.41538C6.71921 4.42509 6.71786 4.43387 6.71731 4.44173C6.71402 4.44388 6.70897 4.44647 6.70237 4.44925C6.68392 4.457 6.65577 4.46526 6.61912 4.47362C6.54707 4.49006 6.44457 4.50639 6.32301 4.52098C6.08572 4.54947 5.80357 4.56822 5.57926 4.56969C5.35492 4.56822 5.07276 4.54947 4.83548 4.52098C4.71396 4.50639 4.61144 4.49006 4.5394 4.47362C4.50869 4.46662 4.48392 4.45968 4.46585 4.45305C4.46784 4.45229 4.46984 4.45144 4.47188 4.45049C4.59421 4.39325 5.40317 4.33953 5.54882 4.33026C5.69452 4.33953 6.50347 4.39325 6.62582 4.45049Z" fill="#C88A02"/> <path fill-rule="evenodd" clip-rule="evenodd" d="M5.55545 2.67352C5.6482 2.67352 5.72345 2.59831 5.72345 2.50552C5.72345 2.41274 5.6482 2.33752 5.55545 2.33752C5.46265 2.33752 5.38745 2.41274 5.38745 2.50552C5.38745 2.59831 5.46265 2.67352 5.55545 2.67352Z" fill="#005BBF"/> <path fill-rule="evenodd" clip-rule="evenodd" d="M5.44617 3.49839C5.44972 3.51683 5.45532 3.534 5.46242 3.54929C5.44072 3.54101 5.41497 3.5362 5.38732 3.5362C5.31002 3.5362 5.24732 3.57381 5.24732 3.6202C5.24732 3.6666 5.31002 3.7042 5.38732 3.7042C5.46462 3.7042 5.52732 3.6666 5.52732 3.6202C5.52732 3.6666 5.59002 3.7042 5.66732 3.7042C5.74462 3.7042 5.80732 3.6666 5.80732 3.6202C5.80732 3.57381 5.74462 3.5362 5.66732 3.5362C5.64787 3.5362 5.62932 3.53859 5.61247 3.54289C5.61652 3.51993 5.61637 3.4936 5.61107 3.46634C5.59632 3.39044 5.54742 3.33608 5.50187 3.34494C5.45637 3.35379 5.43137 3.42249 5.44617 3.49839ZM4.6224 3.60529C4.61533 3.59 4.60973 3.57283 4.60614 3.55439C4.59139 3.47849 4.61635 3.40979 4.66189 3.40094C4.70743 3.39208 4.7563 3.44644 4.77106 3.52234C4.77636 3.5496 4.77653 3.57593 4.77247 3.59889C4.78931 3.59459 4.80785 3.5922 4.82731 3.5922C4.90463 3.5922 4.96731 3.62981 4.96731 3.6762C4.96731 3.7226 4.90463 3.7602 4.82731 3.7602C4.74999 3.7602 4.68731 3.7226 4.68731 3.6762C4.68731 3.7226 4.62463 3.7602 4.54731 3.7602C4.46999 3.7602 4.40731 3.7226 4.40731 3.6762C4.40731 3.62981 4.46999 3.5922 4.54731 3.5922C4.57494 3.5922 4.6007 3.59701 4.6224 3.60529ZM6.37627 3.65648C6.36982 3.70242 6.30252 3.73094 6.22597 3.72018C6.14937 3.70942 6.09257 3.66346 6.09902 3.61752C6.10547 3.57158 6.17277 3.54306 6.24932 3.55382C6.27672 3.55766 6.30152 3.566 6.32187 3.57723C6.31697 3.5611 6.31382 3.54332 6.31287 3.52456C6.30882 3.44735 6.34307 3.38278 6.38942 3.38036C6.43572 3.37793 6.47657 3.43855 6.48062 3.51577C6.48207 3.5435 6.47857 3.5696 6.47137 3.59178C6.48867 3.58986 6.50732 3.59008 6.52662 3.59279C6.60317 3.60355 6.66002 3.64951 6.65357 3.69545C6.64712 3.74139 6.57982 3.76991 6.50322 3.75915C6.42667 3.74839 6.36982 3.70242 6.37627 3.65648ZM6.90947 3.87861C6.97777 3.91491 7.05077 3.91113 7.07252 3.87017L7.07367 3.86788C7.08042 3.87499 7.08837 3.88018 7.09747 3.88295C7.14182 3.89652 7.19612 3.84757 7.21872 3.77363C7.24132 3.69969 7.22367 3.62875 7.17932 3.61519C7.13497 3.60162 7.08067 3.65057 7.05807 3.72451C7.05257 3.74247 7.04947 3.76026 7.04852 3.77709C7.03327 3.75958 7.01277 3.74325 6.98837 3.73028C6.92007 3.69398 6.84707 3.69776 6.82532 3.73872C6.80352 3.77968 6.84122 3.84231 6.90947 3.87861ZM4.16172 3.89577C4.09345 3.93207 4.02045 3.92829 3.99868 3.88732C3.99827 3.88657 3.99789 3.8858 3.99753 3.88503C3.9908 3.89215 3.98284 3.89733 3.97376 3.90011C3.92939 3.91367 3.8751 3.86472 3.8525 3.79078C3.82989 3.71684 3.84753 3.6459 3.8919 3.63234C3.93626 3.61878 3.99055 3.66772 4.01316 3.74166C4.01865 3.75963 4.02177 3.77741 4.0227 3.79424C4.03797 3.77673 4.05846 3.7604 4.08285 3.74743C4.15112 3.71113 4.22412 3.71491 4.2459 3.75587C4.26768 3.79683 4.22999 3.85947 4.16172 3.89577Z" fill="#C88A02"/> <path fill-rule="evenodd" clip-rule="evenodd" d="M5.49273 2.03827H5.60938V2.11197H5.68563V2.22863H5.60938V2.46197H5.68563V2.57863H5.41528V2.46197H5.49273V2.22863H5.41528V2.11197H5.49273V2.03827Z" fill="#C88A02"/> <path d="M5.47131 2.672H5.69531V3.4H5.47131V2.672Z" fill="#C88A02"/> <path d="M4.5696 2.79393L4.56863 2.84992C4.07208 2.84125 3.78725 2.91371 3.71495 3.05814C3.6402 3.20745 3.6541 3.38896 3.75884 3.60458L3.70847 3.62905C3.59671 3.399 3.58145 3.1997 3.66487 3.03307C3.75074 2.86155 4.05205 2.78489 4.5696 2.79393Z" fill="white"/> <path d="M4.6657 3.29047L4.63699 3.33855C4.52885 3.27399 4.47473 3.1638 4.47473 3.01195C4.47473 2.79371 4.58715 2.66573 4.83583 2.57815C4.99454 2.52226 5.21137 2.54517 5.48687 2.64506L5.46777 2.69771C5.20327 2.60182 4.99864 2.58019 4.85443 2.63097C4.62634 2.7113 4.53073 2.82014 4.53073 3.01195C4.53073 3.1452 4.57568 3.23673 4.6657 3.29047Z" fill="white"/> <path d="M3.82942 3.51867L3.72375 3.55578C3.61411 3.2436 3.64542 3.0316 3.83276 2.94015C3.99785 2.85956 4.23844 2.82676 4.55574 2.83962L4.5512 2.95153C4.25078 2.93936 4.02728 2.96983 3.88189 3.0408C3.75877 3.1009 3.73625 3.25339 3.82942 3.51867Z" fill="#C88A02"/> <path d="M5.06397 2.7193C4.8079 2.7193 4.70275 2.78166 4.64267 2.96581C4.60439 3.08316 4.64152 3.18332 4.76191 3.27681L4.69322 3.36527C4.53735 3.24423 4.48239 3.09599 4.5362 2.93107C4.61276 2.6964 4.76299 2.6073 5.06397 2.6073C5.26127 2.6073 5.41492 2.65913 5.52192 2.76461L5.53862 2.78106V3.32104H5.42662V2.82893C5.34307 2.75634 5.22302 2.7193 5.06397 2.7193Z" fill="#C88A02"/> <path d="M6.5238 2.8499L6.5248 2.90589C7.02135 2.89722 7.3062 2.96968 7.3785 3.11411C7.45325 3.26342 7.43935 3.44493 7.3346 3.66055L7.38495 3.68502C7.4967 3.45497 7.51195 3.25567 7.42855 3.08904C7.3427 2.91752 7.0414 2.84086 6.5238 2.8499Z" fill="white"/> <path d="M6.34849 3.30213L6.37719 3.35022C6.48534 3.28565 6.53944 3.17546 6.53944 3.02361C6.53944 2.80537 6.42704 2.67739 6.17834 2.58981C6.01964 2.53392 5.80284 2.55684 5.52734 2.65673L5.54644 2.70937C5.81089 2.61348 6.01554 2.59185 6.15974 2.64263C6.38784 2.72296 6.48344 2.8318 6.48344 3.02361C6.48344 3.15687 6.43849 3.24839 6.34849 3.30213Z" fill="white"/> <path d="M7.29893 3.5747L7.40463 3.61181C7.51428 3.29964 7.48293 3.08763 7.29558 2.99618C7.13053 2.91559 6.88993 2.8828 6.57263 2.89566L6.57718 3.00757C6.87758 2.99539 7.10108 3.02586 7.24648 3.09683C7.36958 3.15693 7.39213 3.30942 7.29893 3.5747Z" fill="#C88A02"/> <path d="M6.0579 2.72797C6.314 2.72797 6.41915 2.79034 6.4792 2.97448C6.5175 3.09183 6.48035 3.19199 6.35995 3.28548L6.42865 3.37394C6.58455 3.2529 6.6395 3.10466 6.5857 2.93974C6.5091 2.70507 6.3589 2.61597 6.0579 2.61597C5.86065 2.61597 5.70695 2.6678 5.59995 2.77328L5.58325 2.78973V3.32971H5.69525V2.8376C5.77885 2.76501 5.89885 2.72797 6.0579 2.72797Z" fill="#C88A02"/> <path opacity="0.3" fill-rule="evenodd" clip-rule="evenodd" d="M3.73523 4.63196H7.3752V7.90235C7.3752 7.90235 7.10485 8.99995 5.5552 8.99995C4.00561 8.99995 3.73523 7.87345 3.73523 7.87345V4.63196Z" fill="#E1E5E8"/> <mask id="mask4_2788_25368" style="mask-type:luminance" maskUnits="userSpaceOnUse" x="3" y="4" width="5" height="5"> <path fill-rule="evenodd" clip-rule="evenodd" d="M3.73523 4.63196H7.3752V7.90235C7.3752 7.90235 7.10485 8.99995 5.5552 8.99995C4.00561 8.99995 3.73523 7.87345 3.73523 7.87345V4.63196Z" fill="white"/> </mask> <g mask="url(#mask4_2788_25368)"> <path d="M3.73523 6.64795H5.58323V8.83195H3.73523V6.64795Z" fill="#FFC034"/> <path d="M3.95923 6.75995H4.18323V8.83195H3.95923V6.75995Z" fill="#AD1619"/> <path d="M4.74316 6.75995H4.96716V8.83195H4.74316V6.75995Z" fill="#AD1619"/> <path d="M4.35132 6.75995H4.57532V8.83195H4.35132V6.75995Z" fill="#AD1619"/> <path d="M5.13525 6.75995H5.35925V8.83195H5.13525V6.75995Z" fill="#AD1619"/> <path d="M3.73523 4.57593H5.58323V6.70393H3.73523V4.57593Z" fill="#AD1619"/> <path d="M5.52722 6.59204H7.37522V8.72004H5.52722V6.59204Z" fill="#AD1619"/> <path d="M5.52722 4.63196H7.48722V6.70396H5.52722V4.63196Z" fill="#F1F9FF"/> <path fill-rule="evenodd" clip-rule="evenodd" d="M4.5192 4.79999H4.6872V5.2646H4.7992V5.0323H4.9672V5.2646H5.1352V5.55495H4.9672V6.0776H5.1352V6.368H4.1272V6.0776H4.2952V5.55495H4.1272V5.2646H4.2392V5.0323H4.4072V5.2646H4.5192V4.79999Z" fill="#C88A02"/> <path d="M6.48865 4.89748L6.6033 4.77472L6.8441 4.99963L6.7294 5.1224L6.48865 4.89748Z" fill="#C88A02"/> <path fill-rule="evenodd" clip-rule="evenodd" d="M7.1793 8.06993V6.84393H5.7793V8.05968L5.7815 8.06913C5.85235 8.37113 6.0937 8.52393 6.4793 8.52393C6.86445 8.52393 7.1058 8.37508 7.17695 8.07963L7.1793 8.06993ZM6.4793 8.35593C6.16995 8.35593 6.001 8.25173 5.9473 8.03988V7.01193H7.0113V8.04963C6.9577 8.25453 6.78875 8.35593 6.4793 8.35593Z" fill="#FFC034"/> <path fill-rule="evenodd" clip-rule="evenodd" d="M6.53693 6.94641H6.42028V7.50226L5.96038 7.00206L5.87793 7.07786L6.29383 7.53021H5.91698V7.69821H6.20648H6.30298L5.87793 8.16056L5.96038 8.23636L6.42028 7.73616V8.38586H6.53693V7.79461L6.94308 8.23636L7.02553 8.16056L6.60043 7.69821H7.07493V7.53021H6.60963L7.02553 7.07786L6.94308 7.00206L6.53693 7.44381V6.94641Z" fill="#FFC034"/> <path fill-rule="evenodd" clip-rule="evenodd" d="M6.74061 8.72131C6.74061 8.72131 5.55451 8.81456 5.55451 8.04956C5.55451 8.04956 5.54321 8.72131 4.30469 8.72131V9.32521H6.74061V8.72131Z" fill="#F1F9FF"/> <path fill-rule="evenodd" clip-rule="evenodd" d="M5.55525 7.09595C5.7872 7.09595 5.97525 6.89535 5.97525 6.64795C5.97525 6.40055 5.7872 6.19995 5.55525 6.19995C5.3233 6.19995 5.13525 6.40055 5.13525 6.64795C5.13525 6.89535 5.3233 7.09595 5.55525 7.09595Z" fill="#005BBF" stroke="#AD1619" stroke-width="1.36584"/> </g> </g> </g> </symbol> <symbol id="icon-icon_United Kingdom" width="16" height="12" viewBox="0 0 16 12" fill="none" > <mask id="mask0_2788_25285" style="mask-type:luminance" maskUnits="userSpaceOnUse" x="0" y="0" width="17" height="12"> <path d="M0.0012207 0H16.0012V12H0.0012207V0Z" fill="white"/> </mask> <g mask="url(#mask0_2788_25285)"> <path fill-rule="evenodd" clip-rule="evenodd" d="M0.0012207 0V12H16.0012V0H0.0012207Z" fill="#2E42A5"/> <mask id="mask1_2788_25285" style="mask-type:luminance" maskUnits="userSpaceOnUse" x="0" y="0" width="17" height="12"> <path fill-rule="evenodd" clip-rule="evenodd" d="M0.0012207 0V12H16.0012V0H0.0012207Z" fill="white"/> </mask> <g mask="url(#mask1_2788_25285)"> <mask id="mask2_2788_25285" style="mask-type:luminance" maskUnits="userSpaceOnUse" x="0" y="0" width="17" height="12"> <path d="M0.0012207 0H16.0012V12H0.0012207V0Z" fill="white"/> </mask> <g mask="url(#mask2_2788_25285)"> <path d="M-1.7804 11.1427L1.74045 12.6317L16.0811 1.61887L17.9382 -0.593873L14.1732 -1.09155L8.32402 3.65418L3.616 6.85171L-1.7804 11.1427Z" fill="white"/> <path d="M-1.29834 12.1859L0.495366 13.05L17.2714 -0.799438H14.7528L-1.29834 12.1859Z" fill="#F50100"/> <path d="M17.7828 11.1427L14.262 12.6317L-0.0786247 1.61887L-1.93579 -0.593873L1.82925 -1.09155L7.67843 3.65418L12.3864 6.85171L17.7828 11.1427Z" fill="white"/> <path d="M17.6627 11.8914L15.869 12.7555L8.7256 6.82589L6.6077 6.16334L-2.1145 -0.586243H0.404072L9.1214 6.00314L11.4369 6.79759L17.6627 11.8914Z" fill="#F50100"/> <path fill-rule="evenodd" clip-rule="evenodd" d="M9.89001 -1H6.11226V4H-0.985107V8H6.11226V13H9.89001V8H17.0149V4H9.89001V-1Z" fill="#F50100"/> <mask id="mask3_2788_25285" style="mask-type:luminance" maskUnits="userSpaceOnUse" x="-1" y="-1" width="19" height="14"> <path fill-rule="evenodd" clip-rule="evenodd" d="M9.89001 -1H6.11226V4H-0.985107V8H6.11226V13H9.89001V8H17.0149V4H9.89001V-1Z" fill="white"/> </mask> <g mask="url(#mask3_2788_25285)"> <path d="M6.11238 -1V-2H5.11238V-1H6.11238ZM9.89013 -1H10.8901V-2H9.89013V-1ZM6.11238 4V5H7.11238V4H6.11238ZM-0.984985 4V3H-1.98499V4H-0.984985ZM-0.984985 8H-1.98499V9H-0.984985V8ZM6.11238 8H7.11238V7H6.11238V8ZM6.11238 13H5.11238V14H6.11238V13ZM9.89013 13V14H10.8901V13H9.89013ZM9.89013 8V7H8.89013V8H9.89013ZM17.015 8V9H18.015V8H17.015ZM17.015 4H18.015V3H17.015V4ZM9.89013 4H8.89013V5H9.89013V4ZM6.11238 -1.19209e-07H9.89013V-2H6.11238V-1.19209e-07ZM7.11238 4V-1H5.11238V4H7.11238ZM-0.984985 5H6.11238V3H-0.984985V5ZM0.0150125 8V4H-1.98499V8H0.0150125ZM6.11238 7H-0.984985V9H6.11238V7ZM7.11238 13V8H5.11238V13H7.11238ZM9.89013 12H6.11238V14H9.89013V12ZM8.89013 8V13H10.8901V8H8.89013ZM17.015 7H9.89013V9H17.015V7ZM16.015 4V8H18.015V4H16.015ZM9.89013 5H17.015V3H9.89013V5ZM8.89013 -1V4H10.8901V-1H8.89013Z" fill="white"/> </g> </g> </g> </g> </symbol> <symbol id="icon-icon_United States" width="16" height="12" viewBox="0 0 16 12" fill="none" > <mask id="mask0_2788_25314" style="mask-type:luminance" maskUnits="userSpaceOnUse" x="-1" y="0" width="17" height="12"> <path d="M-0.000732422 0H15.9993V12H-0.000732422V0Z" fill="white"/> </mask> <g mask="url(#mask0_2788_25314)"> <path fill-rule="evenodd" clip-rule="evenodd" d="M-0.000732422 0H15.9993V12H-0.000732422V0Z" fill="#F7FCFF"/> <path fill-rule="evenodd" clip-rule="evenodd" d="M-0.000732422 7.33331V8.33331H15.9993V7.33331H-0.000732422Z" fill="#E31D1C"/> <path fill-rule="evenodd" clip-rule="evenodd" d="M-0.000732422 9.16669V10.1667H15.9993V9.16669H-0.000732422Z" fill="#E31D1C"/> <path fill-rule="evenodd" clip-rule="evenodd" d="M-0.000732422 3.66663V4.66663H15.9993V3.66663H-0.000732422Z" fill="#E31D1C"/> <path fill-rule="evenodd" clip-rule="evenodd" d="M-0.000732422 11V12H15.9993V11H-0.000732422Z" fill="#E31D1C"/> <path fill-rule="evenodd" clip-rule="evenodd" d="M-0.000732422 5.5V6.5H15.9993V5.5H-0.000732422Z" fill="#E31D1C"/> <path fill-rule="evenodd" clip-rule="evenodd" d="M-0.000732422 0V1H15.9993V0H-0.000732422Z" fill="#E31D1C"/> <path fill-rule="evenodd" clip-rule="evenodd" d="M-0.000732422 1.83337V2.83337H15.9993V1.83337H-0.000732422Z" fill="#E31D1C"/> <path d="M-0.000732422 0H9.99927V6.5H-0.000732422V0Z" fill="#2E42A5"/> <path fill-rule="evenodd" clip-rule="evenodd" d="M0.860252 1.46936L0.497311 1.7238L0.619842 1.27099L0.297485 0.984037H0.718527L0.859742 0.614502L1.02533 0.984037H1.38426L1.10224 1.27099L1.21142 1.7238L0.860252 1.46936ZM2.86025 1.46936L2.49731 1.7238L2.61984 1.27099L2.29749 0.984037H2.71853L2.85974 0.614502L3.02533 0.984037H3.38426L3.10224 1.27099L3.21142 1.7238L2.86025 1.46936ZM4.49731 1.7238L4.86025 1.46936L5.21142 1.7238L5.10222 1.27099L5.38427 0.984037H5.02532L4.85974 0.614502L4.71853 0.984037H4.29749L4.61984 1.27099L4.49731 1.7238ZM6.86027 1.46936L6.49732 1.7238L6.61987 1.27099L6.29747 0.984037H6.71852L6.85977 0.614502L7.02532 0.984037H7.38427L7.10222 1.27099L7.21142 1.7238L6.86027 1.46936ZM0.497311 3.7238L0.860252 3.46936L1.21142 3.7238L1.10224 3.27099L1.38426 2.98404H1.02533L0.859742 2.6145L0.718527 2.98404H0.297485L0.619842 3.27099L0.497311 3.7238ZM2.86025 3.46936L2.49731 3.7238L2.61984 3.27099L2.29749 2.98404H2.71853L2.85974 2.6145L3.02533 2.98404H3.38426L3.10224 3.27099L3.21142 3.7238L2.86025 3.46936ZM4.49731 3.7238L4.86025 3.46936L5.21142 3.7238L5.10222 3.27099L5.38427 2.98404H5.02532L4.85974 2.6145L4.71853 2.98404H4.29749L4.61984 3.27099L4.49731 3.7238ZM6.86027 3.46936L6.49732 3.7238L6.61987 3.27099L6.29747 2.98404H6.71852L6.85977 2.6145L7.02532 2.98404H7.38427L7.10222 3.27099L7.21142 3.7238L6.86027 3.46936ZM0.497311 5.7238L0.860252 5.46935L1.21142 5.7238L1.10224 5.271L1.38426 4.98404H1.02533L0.859742 4.6145L0.718527 4.98404H0.297485L0.619842 5.271L0.497311 5.7238ZM2.86025 5.46935L2.49731 5.7238L2.61984 5.271L2.29749 4.98404H2.71853L2.85974 4.6145L3.02533 4.98404H3.38426L3.10224 5.271L3.21142 5.7238L2.86025 5.46935ZM4.49731 5.7238L4.86025 5.46935L5.21142 5.7238L5.10222 5.271L5.38427 4.98404H5.02532L4.85974 4.6145L4.71853 4.98404H4.29749L4.61984 5.271L4.49731 5.7238ZM6.86027 5.46935L6.49732 5.7238L6.61987 5.271L6.29747 4.98404H6.71852L6.85977 4.6145L7.02532 4.98404H7.38427L7.10222 5.271L7.21142 5.7238L6.86027 5.46935ZM8.49732 1.7238L8.86027 1.46936L9.21142 1.7238L9.10222 1.27099L9.38427 0.984037H9.02532L8.85977 0.614502L8.71852 0.984037H8.29747L8.61987 1.27099L8.49732 1.7238ZM8.86027 3.46936L8.49732 3.7238L8.61987 3.27099L8.29747 2.98404H8.71852L8.85977 2.6145L9.02532 2.98404H9.38427L9.10222 3.27099L9.21142 3.7238L8.86027 3.46936ZM8.49732 5.7238L8.86027 5.46935L9.21142 5.7238L9.10222 5.271L9.38427 4.98404H9.02532L8.85977 4.6145L8.71852 4.98404H8.29747L8.61987 5.271L8.49732 5.7238ZM1.86025 2.46936L1.49731 2.7238L1.61984 2.27099L1.29749 1.98404H1.71853L1.85974 1.6145L2.02533 1.98404H2.38426L2.10224 2.27099L2.21142 2.7238L1.86025 2.46936ZM3.49731 2.7238L3.86025 2.46936L4.21142 2.7238L4.10224 2.27099L4.38426 1.98404H4.02533L3.85974 1.6145L3.71853 1.98404H3.29749L3.61984 2.27099L3.49731 2.7238ZM5.86027 2.46936L5.49732 2.7238L5.61987 2.27099L5.29747 1.98404H5.71852L5.85977 1.6145L6.02532 1.98404H6.38427L6.10222 2.27099L6.21142 2.7238L5.86027 2.46936ZM1.49731 4.7238L1.86025 4.46936L2.21142 4.7238L2.10224 4.27099L2.38426 3.98404H2.02533L1.85974 3.6145L1.71853 3.98404H1.29749L1.61984 4.27099L1.49731 4.7238ZM3.86025 4.46936L3.49731 4.7238L3.61984 4.27099L3.29749 3.98404H3.71853L3.85974 3.6145L4.02533 3.98404H4.38426L4.10224 4.27099L4.21142 4.7238L3.86025 4.46936ZM5.49732 4.7238L5.86027 4.46936L6.21142 4.7238L6.10222 4.27099L6.38427 3.98404H6.02532L5.85977 3.6145L5.71852 3.98404H5.29747L5.61987 4.27099L5.49732 4.7238ZM7.86027 2.46936L7.49732 2.7238L7.61987 2.27099L7.29747 1.98404H7.71852L7.85977 1.6145L8.02532 1.98404H8.38427L8.10222 2.27099L8.21142 2.7238L7.86027 2.46936ZM7.49732 4.7238L7.86027 4.46936L8.21142 4.7238L8.10222 4.27099L8.38427 3.98404H8.02532L7.85977 3.6145L7.71852 3.98404H7.29747L7.61987 4.27099L7.49732 4.7238Z" fill="#F7FCFF"/> </g> </symbol> <symbol id="icon-link" width="14" height="14" viewBox="0 0 14 14" fill="none"> <path d="M4.98633 8.0969C5.10413 8.27467 5.24138 8.44339 5.39801 8.60001C6.66155 9.86345 8.71012 9.86345 9.97367 8.60001L12.7191 5.85487C13.9826 4.59143 13.9826 2.54303 12.7191 1.27959C11.4555 0.0161786 9.40694 0.0161786 8.1434 1.27959L6.77062 2.65228L7.68574 3.56733L9.05852 2.19463C9.81665 1.43659 11.0458 1.43659 11.8039 2.19463C12.562 2.95271 12.562 4.18176 11.8039 4.9398L9.05852 7.68496C8.30041 8.44303 7.07126 8.44303 6.31316 7.68496C6.15275 7.52459 6.0263 7.34313 5.93377 7.1495L4.98633 8.0969Z" fill="currentColor"/> <path d="M9.01346 5.90005C8.89563 5.72221 8.75838 5.55346 8.60168 5.39678C7.33814 4.13337 5.28957 4.13337 4.02603 5.39678L1.28067 8.14194C0.0171213 9.40538 0.0171213 11.4538 1.28067 12.7172C2.54418 13.9806 4.59275 13.9806 5.85629 12.7172L7.229 11.3446L6.31389 10.4296L4.94118 11.8021C4.18304 12.5602 2.95389 12.5602 2.19579 11.8021C1.43765 11.0441 1.43765 9.81506 2.19579 9.05702L4.94118 6.31185C5.69928 5.55378 6.92843 5.55378 7.68653 6.31185C7.84698 6.47225 7.97345 6.65375 8.06599 6.84744L9.01346 5.90005Z" fill="currentColor"/> </symbol><symbol id="icon-media-facebook" width="24" height="24" viewBox="0 0 24 24" fill="none" > <path d="M22 12C22 6.48 17.52 2 12 2C6.48 2 2 6.48 2 12C2 16.84 5.44 20.87 10 21.8V15H8V12H10V9.5C10 7.57 11.57 6 13.5 6H16V9H14C13.45 9 13 9.45 13 10V12H16V15H13V21.95C18.05 21.45 22 17.19 22 12Z" fill="currentColor"/> </symbol> <symbol id="icon-media-fullscreen" width="32" height="32" viewBox="0 0 16 16" fill="none" > <path d="M8.5 7.5L15 0.999999" stroke="currentColor" stroke-width="1.5"/> <path d="M1 15L7.5 8.5" stroke="currentColor" stroke-width="1.5"/> <path d="M8.5 1L15 1L15 7.5" stroke="currentColor" stroke-width="1.5"/> <path d="M7.5 15L1 15L1 8.5" stroke="currentColor" stroke-width="1.5"/> </symbol> <symbol id="icon-media-link" width="24" height="24" viewBox="0 0 24 24" fill="none" > <path d="M8.97925 13.6473C9.15595 13.914 9.36183 14.167 9.59677 14.402C11.4921 16.2971 14.5649 16.2971 16.4603 14.402L20.5783 10.2843C22.4736 8.3891 22.4736 5.3165 20.5783 3.42134C18.683 1.52622 15.6102 1.52622 13.7149 3.42134L11.6557 5.48038L13.0284 6.85295L15.0875 4.7939C16.2247 3.65684 18.0685 3.65684 19.2056 4.7939C20.3428 5.93101 20.3428 7.77459 19.2056 8.91165L15.0875 13.0294C13.9504 14.1665 12.1066 14.1665 10.9695 13.0294C10.7289 12.7888 10.5392 12.5166 10.4004 12.2262L8.97925 13.6473Z" fill="currentColor"/> <path d="M15.0207 10.3529C14.8439 10.0861 14.6381 9.83299 14.403 9.59797C12.5077 7.70286 9.43485 7.70286 7.53953 9.59797L3.42149 13.7157C1.52617 15.6109 1.52617 18.6835 3.42149 20.5786C5.31676 22.4738 8.38961 22.4738 10.2849 20.5786L12.344 18.5197L10.9713 17.1471L8.91225 19.206C7.77505 20.3431 5.93132 20.3431 4.79417 19.206C3.65697 18.069 3.65697 16.2254 4.79417 15.0883L8.91225 10.9706C10.0494 9.83348 11.8931 9.83348 13.0303 10.9706C13.271 11.2112 13.4607 11.4834 13.5995 11.774L15.0207 10.3529Z" fill="currentColor"/> </symbol> <symbol id="icon-media-linkedin" width="24" height="24" viewBox="0 0 24 24" fill="none" > <path d="M20.4701 2.00002H3.53006C3.33964 1.99737 3.15056 2.03227 2.97362 2.1027C2.79669 2.17314 2.63536 2.27774 2.49886 2.41053C2.36235 2.54332 2.25334 2.7017 2.17805 2.87663C2.10276 3.05155 2.06267 3.2396 2.06006 3.43002V20.57C2.06267 20.7604 2.10276 20.9485 2.17805 21.1234C2.25334 21.2983 2.36235 21.4567 2.49886 21.5895C2.63536 21.7223 2.79669 21.8269 2.97362 21.8973C3.15056 21.9678 3.33964 22.0027 3.53006 22H20.4701C20.6605 22.0027 20.8496 21.9678 21.0265 21.8973C21.2034 21.8269 21.3648 21.7223 21.5013 21.5895C21.6378 21.4567 21.7468 21.2983 21.8221 21.1234C21.8974 20.9485 21.9375 20.7604 21.9401 20.57V3.43002C21.9375 3.2396 21.8974 3.05155 21.8221 2.87663C21.7468 2.7017 21.6378 2.54332 21.5013 2.41053C21.3648 2.27774 21.2034 2.17314 21.0265 2.1027C20.8496 2.03227 20.6605 1.99737 20.4701 2.00002ZM8.09006 18.74H5.09006V9.74002H8.09006V18.74ZM6.59006 8.48002C6.17632 8.48002 5.77953 8.31566 5.48697 8.0231C5.19442 7.73055 5.03006 7.33376 5.03006 6.92002C5.03006 6.50628 5.19442 6.10949 5.48697 5.81693C5.77953 5.52437 6.17632 5.36002 6.59006 5.36002C6.80975 5.3351 7.03224 5.35687 7.24293 5.4239C7.45363 5.49093 7.6478 5.60171 7.81272 5.74898C7.97763 5.89625 8.10958 6.0767 8.19993 6.2785C8.29028 6.4803 8.33698 6.69891 8.33698 6.92002C8.33698 7.14112 8.29028 7.35973 8.19993 7.56154C8.10958 7.76334 7.97763 7.94378 7.81272 8.09106C7.6478 8.23833 7.45363 8.3491 7.24293 8.41613C7.03224 8.48316 6.80975 8.50493 6.59006 8.48002ZM18.9101 18.74H15.9101V13.91C15.9101 12.7 15.4801 11.91 14.3901 11.91C14.0527 11.9125 13.7242 12.0183 13.4489 12.2132C13.1735 12.4081 12.9645 12.6827 12.8501 13C12.7718 13.2351 12.7379 13.4826 12.7501 13.73V18.73H9.75006V9.73002H12.7501V11C13.0226 10.5271 13.419 10.1375 13.8965 9.87322C14.374 9.6089 14.9146 9.47987 15.4601 9.50002C17.4601 9.50002 18.9101 10.79 18.9101 13.56V18.74Z" fill="currentColor"/> </symbol> <symbol id="icon-media-mute" width="24" height="24" viewBox="0 0 24 24" fill="none" > <path d="M11.784 4.15769C11.3399 3.98125 10.8475 4.10047 10.5192 4.43905L6.27127 8.85006H3.60664C2.96462 8.85006 2.45776 9.34123 2.45776 9.9707V14.3102C2.45776 14.9396 2.96462 15.4308 3.60664 15.4308H6.27127L10.5241 19.8371C10.7461 20.0707 11.0502 20.1995 11.3592 20.1995C11.504 20.1995 11.644 20.1756 11.784 20.1184C12.2281 19.942 12.5032 19.5271 12.5032 19.0598V5.22111C12.5032 4.74901 12.2281 4.33413 11.784 4.15769ZM11.1468 18.5877L7.18844 14.4771C7.07741 14.2625 6.86019 14.1051 6.59469 14.1051H3.80939V10.1853H6.59469C6.85536 10.1853 7.07259 10.0279 7.18844 9.81333L11.1468 5.70274V18.5877Z" fill="currentColor"/> <path d="M15.5569 15.1604L21.5419 9.17545" stroke="currentColor" stroke-width="1.14046"/> <path d="M15.5569 9.11469L21.5419 15.0997" stroke="currentColor" stroke-width="1.14046"/> </symbol> <symbol id="icon-media-pause" width="24" height="24" viewBox="0 0 24 24" fill="none" > <rect x="6.75" y="4.75" width="4" height="14.5" stroke="currentColor" stroke-width="1.5"/> <rect x="14.25" y="4.75" width="4" height="14.5" stroke="currentColor" stroke-width="1.5"/> </symbol> <symbol id="icon-media-play" width="24" height="24" viewBox="0 0 24 24" fill="none" > <path d="M6 19V5L18 12L6 19Z" stroke="currentColor" stroke-width="1.5"/> </symbol> <symbol id="icon-media-share" width="24" height="24" viewBox="0 0 24 24" fill="none" > <path d="M18 22C19.6569 22 21 20.6569 21 19C21 17.3431 19.6569 16 18 16C16.3431 16 15 17.3431 15 19C15 20.6569 16.3431 22 18 22Z" stroke="currentColor" stroke-width="1.5" stroke-linecap="round" stroke-linejoin="round"/> <path d="M18 8C19.6569 8 21 6.65685 21 5C21 3.34315 19.6569 2 18 2C16.3431 2 15 3.34315 15 5C15 6.65685 16.3431 8 18 8Z" stroke="currentColor" stroke-width="1.5" stroke-linecap="round" stroke-linejoin="round"/> <path d="M6 15C7.65685 15 9 13.6569 9 12C9 10.3431 7.65685 9 6 9C4.34315 9 3 10.3431 3 12C3 13.6569 4.34315 15 6 15Z" stroke="currentColor" stroke-width="1.5" stroke-linecap="round" stroke-linejoin="round"/> <path d="M15.5 6.5L8.5 10.5" stroke="currentColor" stroke-width="1.5"/> <path d="M8.5 13.5L15.5 17.5" stroke="currentColor" stroke-width="1.5"/> </symbol> <symbol id="icon-media-volume" width="24" height="24" viewBox="0 0 24 24" fill="none" > <path d="M15.3523 7.41205V8.73717C17.1728 8.73717 18.6579 10.1995 18.6579 12.0027C18.6579 13.8058 17.1728 15.2681 15.3523 15.2681V16.5933C17.9393 16.5933 19.9993 14.5346 19.9993 12.0027C19.9993 9.47072 17.9393 7.41205 15.3523 7.41205Z" fill="currentColor"/> <path d="M13.2556 4.08051C12.8149 3.90541 12.3262 4.02372 12.0005 4.35973L7.78465 8.73737H5.14018C4.50302 8.73737 4 9.22483 4 9.84953V14.1562C4 14.7809 4.50302 15.2683 5.14018 15.2683H7.78465L12.0052 19.6412C12.2256 19.8731 12.5274 20.0009 12.834 20.0009C12.9778 20.0009 13.1167 19.9772 13.2556 19.9205C13.6964 19.7454 13.9694 19.3336 13.9694 18.8698V5.13588C13.9694 4.66735 13.6964 4.25562 13.2556 4.08051ZM12.6232 18.4013L8.69488 14.3218C8.58469 14.1088 8.36911 13.9527 8.10562 13.9527H5.34139V10.0625H8.10562C8.36432 10.0625 8.5799 9.90632 8.69488 9.69335L12.6232 5.61387V18.4013Z" fill="currentColor"/> </symbol> <symbol id="icon-media-x" width="24" height="24" viewBox="0 0 24 24" fill="none" > <path d="M17.7508 3H20.8175L14.1175 10.6255L22 21H15.8283L10.995 14.7071L5.46333 21H2.395L9.56167 12.8435L2 3.00083H8.32833L12.6975 8.75273L17.7508 3ZM16.675 19.1729H18.3742L7.405 4.73171H5.58167L16.675 19.1729Z" fill="currentColor"/> </symbol> <symbol id="icon-pill-filter-active" width="16" height="16" viewBox="0 0 16 16" fill="none" > <rect x="4" y="4.5" width="8" height="8" rx="3" fill="currentColor"/> </symbol> <symbol id="icon-pill-filter" width="16" height="16" viewBox="0 0 16 16" fill="none" > <rect x="4" y="4.5" width="8" height="8" rx="3" stroke="currentColor" stroke-width="1" fill=""/> </symbol><symbol id="icon-play-pause" width="24" height="24" viewBox="0 0 24 24" fill="none" > <rect x="6.75" y="4.75" width="4" height="14.5" stroke="currentColor" stroke-width="1.5"/> <rect x="14.25" y="4.75" width="4" height="14.5" stroke="currentColor" stroke-width="1.5"/> </symbol> <symbol id="icon-podcast" width="24" height="24" viewBox="0 0 24 24" fill="none" > <path d="M4 13.5V13C4 8.02944 7.58172 4 12 4C16.4183 4 20 8.02944 20 13V13.5" stroke="currentColor" stroke-width="1.5"/> <path d="M2 17.4383V15.5614C2 14.6436 2.62459 13.8437 3.51493 13.6211L4 13.4998L5.25448 13.1862C5.63317 13.0915 6 13.0002 6 13.0002V20.0002C6 20.0002 5.63317 19.9081 5.25448 19.8134L3.51493 19.3785C2.62459 19.156 2 18.356 2 17.4383Z" stroke="currentColor" stroke-width="1.5"/> <path d="M22 17.4382V15.5614C22 14.6436 21.3754 13.8437 20.4851 13.6211L20 13.4998L18.7455 13.1862C18.3668 13.0915 18 13.0001 18 13.0001V20.0001C18 20.0001 18.3668 19.9081 18.7455 19.8134L20.4851 19.3785C21.3754 19.1559 22 18.356 22 17.4382Z" stroke="currentColor" stroke-width="1.5"/> </symbol> <symbol id="icon-quote-mark" width="44" height="40" viewBox="0 0 44 40" fill="none"> <path d="M16.0833 22.5833V40H0V26.25C0 18.8056 0.888889 13.4167 2.66667 10.0833C5 5.63889 8.69444 2.27778 13.75 0L17.4167 5.83333C14.3611 7.11111 12.1111 9.02778 10.6667 11.5833C9.22222 14.0833 8.41667 17.75 8.25 22.5833H16.0833ZM41.9167 22.5833V40H25.8333V26.25C25.8333 18.8056 26.7222 13.4167 28.5 10.0833C30.8333 5.63889 34.5278 2.27778 39.5833 0L43.25 5.83333C40.1944 7.11111 37.9444 9.02778 36.5 11.5833C35.0556 14.0833 34.25 17.75 34.0833 22.5833H41.9167Z" fill="black"/> </symbol><symbol id="icon-quote-with-audio" width="32" height="32" viewBox="0 0 32 32" fill="none" > <path d="M10.4721 21.224C10.2455 21.224 9.97347 21.2013 9.65613 21.156C9.3388 21.1107 8.97613 20.9747 8.56813 20.748C6.8908 19.7507 5.62147 18.64 4.76013 17.416C3.94413 16.192 3.53613 14.696 3.53613 12.928C3.53613 11.6587 3.8988 10.344 4.62413 8.984C5.3948 7.624 6.50547 6.4 7.95613 5.312C9.45213 4.224 11.2881 3.45334 13.4641 3V4.428C11.9681 4.74533 10.5855 5.38 9.31613 6.332C8.09213 7.284 7.48013 8.46267 7.48013 9.868C7.48013 10.6387 7.68413 11.4093 8.09213 12.18C8.50013 12.9053 9.45213 13.6533 10.9481 14.424L13.4641 15.716V16.532L12.1721 19.728C11.8095 20.7253 11.2428 21.224 10.4721 21.224ZM24.0721 21.224C23.8455 21.224 23.5735 21.2013 23.2561 21.156C22.9388 21.1107 22.5761 20.9747 22.1681 20.748C20.4908 19.7507 19.2215 18.64 18.3601 17.416C17.5441 16.192 17.1361 14.696 17.1361 12.928C17.1361 11.6587 17.4988 10.344 18.2241 8.984C18.9948 7.624 20.1055 6.4 21.5561 5.312C23.0521 4.224 24.8881 3.45334 27.0641 3V4.428C25.5681 4.74533 24.1855 5.38 22.9161 6.332C21.6921 7.284 21.0801 8.46267 21.0801 9.868C21.0801 10.6387 21.2841 11.4093 21.6921 12.18C22.1001 12.9053 23.0521 13.6533 24.5481 14.424L27.0641 15.716V16.532L25.7721 19.728C25.4095 20.7253 24.8428 21.224 24.0721 21.224Z" fill="currentColor"/> </symbol> <symbol id="icon-search" width="32" height="32" viewBox="0 0 32 32" fill="none" > <path d="M10 22L2 30" stroke="currentColor" stroke-width="1.5" stroke-linejoin="round"/> <path d="M30 14C30 20.6274 24.6274 26 18 26C14.6806 26 11.6759 24.6522 9.50344 22.474C7.3385 20.3033 6 17.308 6 14C6 7.37258 11.3726 2 18 2C24.6274 2 30 7.37258 30 14Z" stroke="currentColor" stroke-width="1.5" stroke-linecap="round" stroke-linejoin="round"/> </symbol> <symbol id="icon-share-social-media" width="16" height="16" viewBox="0 0 16 16" fill="none" > <path d="M5.98633 9.09812C6.10413 9.2759 6.24138 9.44461 6.39801 9.60123C7.66155 10.8647 9.71012 10.8647 10.9737 9.60123L13.7191 6.85609C14.9826 5.59265 14.9826 3.54425 13.7191 2.28081C12.4555 1.0174 10.4069 1.0174 9.1434 2.28081L7.77062 3.65351L8.68574 4.56855L10.0585 3.19585C10.8166 2.43781 12.0458 2.43781 12.8039 3.19585C13.562 3.95393 13.562 5.18298 12.8039 5.94102L10.0585 8.68618C9.30041 9.44425 8.07126 9.44425 7.31316 8.68618C7.15275 8.52581 7.0263 8.34435 6.93377 8.15072L5.98633 9.09812Z" fill="currentColor"/> <path d="M10.0144 6.90175C9.8966 6.72392 9.75935 6.55517 9.60266 6.39849C8.33911 5.13508 6.29055 5.13508 5.027 6.39849L2.28164 9.14365C1.0181 10.4071 1.0181 12.4555 2.28164 13.7189C3.54516 14.9823 5.59372 14.9823 6.85727 13.7189L8.22998 12.3463L7.31486 11.4313L5.94215 12.8039C5.18402 13.5619 3.95486 13.5619 3.19676 12.8039C2.43863 12.0458 2.43863 10.8168 3.19676 10.0587L5.94215 7.31356C6.70025 6.55549 7.92941 6.55549 8.68751 7.31356C8.84796 7.47396 8.97443 7.65546 9.06696 7.84915L10.0144 6.90175Z" fill="currentColor"/> </symbol> <symbol id="icon-star" fill="none" viewBox="0 3 16 15.22"> <path d="M8 3L9.87882 8.82572L16 8.81234L11.04 12.3995L12.9443 18.2169L8 14.6081L3.05573 18.2169L4.96 12.3995L0 8.81234L6.12118 8.82572L8 3Z" fill="currentColor"/> </symbol><symbol id="icon-stats-arrow-down" width="32" height="32" viewBox="0 0 15 16" fill="none" > <g transform="rotate(180, 7.5, 8)"> <path d="M7.26562 14.8945L7.26563 2.83748" stroke="currentColor" stroke-width="2"/> <path d="M1.23633 8.26367L7.26486 2.23515L13.2934 8.26367" stroke="currentColor" stroke-width="2"/> </g> </symbol> <symbol id="icon-stats-arrow-up" width="32" height="32" viewBox="0 0 15 16" fill="none" version="1.1" xmlns:xlink="http://www.w3.org/1999/xlink" transform="matrix(-1,1.2246467991473532e-16,-1.2246467991473532e-16,-1,0,0)"> <path d="M7.26562 14.8945L7.26563 2.83748" stroke="currentColor" stroke-width="2"></path> <path d="M1.23633 8.26367L7.26486 2.23515L13.2934 8.26367" stroke="currentColor" stroke-width="2"></path> </symbol><symbol id="icon-tag-2" width="12" height="12" viewBox="0 0 12 12" fill="none" > <rect width="12" height="12" rx="3" fill="currentColor"/> </symbol> <symbol id="icon-tag" width="14" height="14" viewBox="0 0 14 14" fill="none" > <rect width="14" height="14" rx="3" fill="currentColor"/> </symbol> </svg>